<?xml version="1.0" encoding="UTF-8"?><svg id="Layer_2" xmlns="http://www.w3.org/2000/svg" viewBox="0 0 1411.62 1412.92"><defs><style>.cls-1{fill:#fff;}.cls-2{fill:#e04a33;}.cls-3{fill:#252524;}</style></defs><g id="Layer_1-2"><circle class="cls-3" cx="704.88" cy="712.29" r="700.63"/><g><path class="cls-2" d="M700.67,.02C313.23,2.78,0,317.72,0,705.81c0,214.54,95.73,406.72,246.8,536.17,3.1,2.65,7.76,2.31,10.41-.79l341.8-399.21c2.67-3.11,7.46-3.16,10.19-.1l85.37,95.69c2.72,3.05,7.49,3.01,10.16-.07l82.86-95.5c2.7-3.11,7.53-3.11,10.23,0l350.32,404.55c2.64,3.05,7.23,3.4,10.32,.81,155.62-130.22,254.28-326.27,253.13-545.32C1409.57,311.38,1091.31-2.77,700.67,.02Z"/><path class="cls-1" d="M606.86,809.57c2.16,1.97,5.63,.45,5.69-2.47,2.86-134.78,69.44-172.8,107.12-200.67,38.36-28.38,124.55-58.86,121.4-213.9-1.94-95.56-8.68-160.67-13.56-196.57-.53-3.9-6.24-3.65-6.45,.28-7.88,149.56-55.35,217.5-148.17,290.71-116.32,78.01-186.82,212.37-66.04,322.62Z"/></g></g></svg>